
<svg version="1.1" xmlns="http://www.w3.org/2000/svg" xmlns:xlink="http://www.w3.org/1999/xlink" preserveAspectRatio="xMidYMid meet" viewBox="0 0 390 390" width="390" height="390"><defs><path d="M388.93 -0.58C394.46 -0.58 398.93 3.9 398.93 9.42C398.93 85.54 398.93 303.88 398.93 380C398.93 385.52 394.46 390 388.93 390C307.58 390 73.53 390 -7.82 390C-13.34 390 -17.82 385.52 -17.82 380C-17.82 303.88 -17.82 85.54 -17.82 9.42C-17.82 3.9 -13.34 -0.58 -7.82 -0.58C73.53 -0.58 307.58 -0.58 388.93 -0.58Z" id="d2IrZTano"></path><path d="M357.05 182.93C357.05 270.92 284.79 342.35 195.79 342.35C106.79 342.35 34.53 270.92 34.53 182.93C34.53 94.95 106.79 23.51 195.79 23.51C284.79 23.51 357.05 94.95 357.05 182.93Z" id="e3cCkESBN"></path><path d="M315.56 150.7C305.42 160.38 278.72 148.9 255.96 125.08C233.21 101.26 222.96 74.06 233.09 64.38C243.23 54.7 269.93 66.18 292.69 90C315.44 113.82 325.69 141.01 315.56 150.7Z" id="b4W17GG3V"></path></defs><g><g><g><use xlink:href="#d2IrZTano" opacity="1" fill="#8c8c8c" fill-opacity="1"></use><g><use xlink:href="#d2IrZTano" opacity="1" fill-opacity="0" stroke="#8c8c8c" stroke-width="1" stroke-opacity="1"></use></g></g><g><use xlink:href="#e3cCkESBN" opacity="1" fill="#ffffff" fill-opacity="1"></use></g><g><use xlink:href="#b4W17GG3V" opacity="1" fill="#8c8c8c" fill-opacity="1"></use></g></g></g></svg>